PathFileType	4	(X/Y/Z)	C:/Users/opensim2020/Desktop/walking_exp_matlab/subject06_walking18_straight_03.trc	
DataRate	CameraRate	NumFrames	NumMarkers	Units	OrigDataRate	OrigDataStartFrame	OrigNumFrames	
100.00	100.00	4	47	mm	100.00	3508	309	
Frame#	Time	LFHD			RFHD			LBHD			RBHD			C7			T10			CLAV			STRN			RBAK			LSHO			LUPA			LELB			LFRM			LWRA			LWRB			LFIN			RSHO			RUPA			RELB			RFRM			RWRA			RWRB			RFIN			LASI			RASI			LPSI			RPSI			LTHI			LKNE			LTIB			LANK			LHEE			LTOE			RTHI			RKNE			RTIB			RANK			RHEE			RTOE			*39			*40			*41			*42			*43			*44			*45			*46			
		X1	Y1	Z1	X2	Y2	Z2	X3	Y3	Z3	X4	Y4	Z4	X5	Y5	Z5	X6	Y6	Z6	X7	Y7	Z7	X8	Y8	Z8	X9	Y9	Z9	X10	Y10	Z10	X11	Y11	Z11	X12	Y12	Z12	X13	Y13	Z13	X14	Y14	Z14	X15	Y15	Z15	X16	Y16	Z16	X17	Y17	Z17	X18	Y18	Z18	X19	Y19	Z19	X20	Y20	Z20	X21	Y21	Z21	X22	Y22	Z22	X23	Y23	Z23	X24	Y24	Z24	X25	Y25	Z25	X26	Y26	Z26	X27	Y27	Z27	X28	Y28	Z28	X29	Y29	Z29	X30	Y30	Z30	X31	Y31	Z31	X32	Y32	Z32	X33	Y33	Z33	X34	Y34	Z34	X35	Y35	Z35	X36	Y36	Z36	X37	Y37	Z37	X38	Y38	Z38	X39	Y39	Z39	X40	Y40	Z40	X41	Y41	Z41	X42	Y42	Z42	X43	Y43	Z43	X44	Y44	Z44	X45	Y45	Z45	X46	Y46	Z46	X47	Y47	Z47	

194	1.930	1392.02905	484.00296	1669.48230	1522.10413	479.68573	1652.22681	1385.70740	352.06735	1612.56458	1514.65967	349.83972	1601.10828	1435.12695	352.98392	1453.13245	1438.37891	320.05560	1125.04968	1437.76672	463.05310	1377.06628	1427.01074	505.03201	1202.66736	1507.94617	280.28854	1280.77344	1275.97314	416.63171	1412.05420	1205.69324	441.09229	1210.62537	1196.93237	456.27020	1097.74622	1194.04761	542.63037	973.79303	1254.72168	645.72729	911.25140	1217.04321	601.06342	871.91864	1229.25232	677.18616	824.83203	1597.64233	413.35001	1405.37695	1678.07190	366.97336	1205.76648	1683.90295	369.43265	1083.09607	1697.84485	373.97525	962.44495	1664.02454	419.54572	817.91882	1703.94617	366.44821	824.50842	1705.40100	395.44452	744.82208	1328.22327	492.36166	961.44202	1548.98303	504.00436	974.90796	1361.70679	337.40753	991.60529	1528.99048	352.88031	998.42505	1278.00415	394.11902	645.72528	1296.62708	373.51938	482.15497	1304.34277	208.87665	283.24280	1345.38074	113.27023	138.71414	1391.14380	71.45798	146.76157	1353.71948	219.07820	40.11443	1611.08264	486.35730	643.29559	1582.02185	511.95731	522.60748	1583.22156	508.49948	255.87306	1536.46741	525.17615	70.49918	1491.59070	488.17407	46.54975	1530.07581	680.46570	42.89690	1450.02783	381.02560	1703.27319																					 
195	1.940	1393.70959	490.42432	1670.53406	1523.54871	486.16241	1653.24841	1387.58020	358.61710	1613.36414	1516.54639	356.59134	1601.95313	1437.10938	359.90970	1454.00818	1440.79529	327.24026	1125.94812	1439.51538	470.04883	1378.09851	1428.88818	512.25146	1203.77869	1510.43518	287.59164	1281.84192	1277.89514	423.22363	1412.96521	1207.61133	447.62787	1211.66321	1198.92297	461.93216	1098.84705	1194.91150	547.72870	974.10553	1255.12109	650.30469	910.27307	1216.99194	605.21832	871.63275	1229.10376	680.97980	823.64465	1599.39563	420.82440	1406.65442	1680.19080	374.92313	1207.06274	1685.92200	377.68536	1084.27759	1699.93420	382.81189	963.73505	1665.93127	429.12668	819.51782	1705.57373	376.14218	825.65704	1706.85303	405.72687	746.14783	1329.72742	498.93408	962.83148	1550.32080	511.38452	975.46808	1363.93225	344.16705	992.47986	1531.18445	358.71622	999.93549	1278.64026	404.01337	646.27356	1296.72241	385.88721	482.49170	1305.41602	218.34218	286.78891	1346.55017	119.97581	144.54416	1392.94116	79.20032	153.95976	1354.65222	220.50415	40.60814	1612.16248	491.68195	643.67212	1583.39233	515.45984	522.41492	1583.60559	509.19699	255.66191	1536.40283	525.40729	70.45214	1491.55334	488.17862	46.67003	1529.84119	680.71881	42.28477	1451.80334	387.48300	1704.13892																					 
196	1.950	1395.27869	496.83075	1671.51587	1525.16943	492.77948	1654.26794	1389.32227	365.14780	1614.03235	1518.31030	363.28259	1602.64636	1439.05994	366.85788	1454.73962	1443.16797	334.30197	1126.73938	1441.27673	477.00314	1379.01758	1430.71313	519.29492	1204.64429	1512.95984	294.85178	1282.59167	1279.74109	429.69556	1413.69299	1209.47559	453.71439	1212.29041	1200.48328	468.11102	1099.59949	1195.86572	552.37433	974.18176	1255.37891	654.67920	908.97174	1216.94287	609.19611	871.03119	1228.83008	684.48328	822.27014	1601.24194	428.24411	1407.71375	1682.35779	382.82745	1208.13721	1688.17139	385.95914	1085.38123	1701.79932	391.97922	964.74469	1667.61377	439.03839	820.83649	1707.28564	385.99783	826.60889	1708.19629	416.19073	747.26080	1331.33447	505.59338	964.06744	1551.82983	518.60370	975.96783	1366.01355	350.81500	993.16138	1533.17285	365.99051	1000.61102	1279.27258	413.72656	646.86633	1296.82483	398.04614	482.80295	1306.62683	228.15849	290.30280	1347.65869	127.23852	150.18491	1394.88306	87.59171	160.87489	1354.88953	222.66502	41.46019	1613.12549	496.94547	643.96582	1584.71631	518.77734	522.20056	1584.20435	510.40219	255.52037	1536.35376	525.59552	70.37623	1491.32141	488.39014	46.55233	1529.77332	681.08441	41.89628	1453.48865	393.82086	1704.87805																					 
197	1.960	1396.71118	503.14386	1672.32336	1526.59302	499.36356	1655.16174	1391.05481	371.59137	1614.49609	1520.03857	369.92105	1603.23743	1441.06604	373.66772	1455.51733	1445.45142	341.10205	1127.27087	1442.95813	483.89865	1379.75977	1432.48706	526.19562	1205.36658	1515.52051	301.97620	1283.19507	1281.51697	435.94962	1414.14514	1211.23425	459.40790	1212.66907	1202.08777	473.87039	1100.03259	1196.69958	556.86078	973.94141	1255.49622	658.78839	907.38745	1216.84375	612.90869	870.21069	1228.34705	687.89783	820.64374	1603.01453	435.63583	1408.57288	1684.58655	390.76935	1208.94678	1690.38281	394.34109	1086.21082	1703.86694	401.08975	965.60016	1669.04834	449.11325	822.00922	1709.06140	396.18069	827.36121	1709.62549	426.91083	748.23798	1332.91101	512.03217	965.05798	1553.36084	525.53088	976.28851	1367.90906	357.29367	993.68512	1534.96765	372.68552	1001.21381	1279.99243	423.19360	647.30475	1296.98499	410.23096	483.06064	1307.86475	238.29662	293.73526	1348.84766	134.91705	155.66777	1396.78296	96.47220	167.38181	1354.62476	225.51486	42.73086	1614.33228	502.30569	644.44861	1586.14368	522.25958	522.13452	1585.05322	512.21667	255.45874	1536.39832	525.77808	70.33022	1491.57837	488.27298	46.80078	1529.52441	681.16431	41.43679	1455.02063	400.09314	1705.47278																					 
